# xmcd
#
# Track frame offsets:
#	150
#	16015
#	25029
#	37899
#	50043
#	67921
#	82017
#	97348
#	110489
#	119915
#	132173
#	146857
#	159456
#	175805
#	195216
#	211235
#	229364
#	246489
#	253149
#	265990
#	279235
#	293381
#	306956
#	320510
#	330666
#
# Disc length: 4601 seconds
#
# Revision: 2
# Processed by: cddbd v1.5.2PL0 Copyright (c) Steve Scherf et al.
# Submitted via: EasyCDDAExtractor 11.0.3.1
#
DISCID=7011f719
DTITLE=Various Artist - Lost Sounds - Blacks And The Birth Of The Recording I
DTITLE=ndustry 1891-1922 - CD2
DYEAR=2005
DGENRE=Blues
TTITLE0=Booker T. Washington - Atlanta Exposition Speech
TTITLE1=Thomas Craig - Old Black Joe
TTITLE2=Carroll Clark - Old Dog Tray
TTITLE3=Daisy Tapley and Carroll Clark - I Surrender All
TTITLE4=Afro-American Folk Song Singers - Swing Along
TTITLE5=Afro-American Folk Song Singers - The Rain Song
TTITLE6=Right Quintette - Exhortation
TTITLE7=Roland Hayes - Arioso From 'Pagliacci' ('Vesta La Giubba')
TTITLE8=Harry T. Burleigh - Go Down Moses
TTITLE9=Edward H. S. Boatner - Sometimes I Feel Like A Motherless Child
TTITLE10=Florence Cole-Talbert - Villanelle
TTITLE11=R. Nathaniel Dett - Barcarnolle
TTITLE12=Clarence Cameron White - Lament
TTITLE13=Edward Sterling Wright - When De Co'n Pone's Hot - 'Possum
TTITLE14=Europe's Society Orchestra - Down Home Rag
TTITLE15=Joan Sawyer's Persian Garden Orchestra - Bregeiro (Rio Brazilian Maxi
TTITLE15=xe)
TTITLE16=Ciro's Club Coon Orchestra - On The Shore At Le-Lei-Wei
TTITLE17=Wilbur C. Sweatman - Down Home Rag
TTITLE18=Memphis Pickaninny Band - Some Jazz Blues
TTITLE19=Eubie Blake Trio - Sarah From Sahara
TTITLE20=Blake's Jazzone Orchestra - The Jazz Dance
TTITLE21=Wilbur C. Sweatman's Original Jazz Band - Ev'rybody's Crazy 'Bout The
TTITLE21=Doggone Blues But I'm Happy
TTITLE22=Lieut. Jim Europe's 369Th U.S. Infantry 'Hell Fighters' Band - Darkto
TTITLE22=wn Strutters' Ball
TTITLE23=Ford Dabney's Band - Camp Meeting Blues
TTITLE24=W.C. Handy's Memphis Blues Band - St. Louis Blues
EXTD=
EXTT0=
EXTT1=
EXTT2=
EXTT3=
EXTT4=
EXTT5=
EXTT6=
EXTT7=
EXTT8=
EXTT9=
EXTT10=
EXTT11=
EXTT12=
EXTT13=
EXTT14=
EXTT15=
EXTT16=
EXTT17=
EXTT18=
EXTT19=
EXTT20=
EXTT21=
EXTT22=
EXTT23=
EXTT24=
PLAYORDER=
